<?xml version="1.0" encoding="utf-8"?>
<!-- Generator: Adobe Illustrator 17.1.0, SVG Export Plug-In . SVG Version: 6.00 Build 0)  -->
<!DOCTYPE svg PUBLIC "-//W3C//DTD SVG 1.1//EN" "http://www.w3.org/Graphics/SVG/1.1/DTD/svg11.dtd">
<svg version="1.1" id="Layer_1" xmlns="http://www.w3.org/2000/svg" xmlns:xlink="http://www.w3.org/1999/xlink" x="0px" y="0px"
	 viewBox="0 24.5 200 155" enable-background="new 0 24.5 200 155" xml:space="preserve">
<g>
	<g>
		<g>
			<path fill="#2DA48E" d="M46.8,51.2c-0.7,1.4-1.5,2.9-1.9,4.4c-0.3,1.1-0.5,3.5-1.3,4.3c-1.2,1.2-2,8.2-5.2,5.4
				c-0.8-0.7-0.5-1.7-1.2-2.4c-1-0.9-1.3-3-1.8-4.2c-1.1-3.2-2.4-6.3-3.9-9.3c-1,4-1.1,8.5-1.5,12.7c-0.2,2,0.3,9.4-3.1,9.1
				c-0.7-0.1-2.8-1.3-3.2-1.9c-0.9-1.2,0-4.1,0.2-5.5c0.4-4.1,0.9-8.2,1.4-12.3c0.4-4,0.7-8.1,1.5-12c0.2-0.9,0.7-1.9,0.7-2.8
				c0-0.6-0.5-1-0.5-1.6c-0.4-2.9,2.9-0.2,3.5,0.3c0.6,0.6,1.4,1.1,2,1.6c1.3,1.3,0.1,3.6,0.7,5.2c1.3,3.4,3.4,7.2,4.1,10.8
				c1-1,1.3-3.8,1.8-5.1c0.8-2,1.6-4.1,2.5-6.1c0.8-2.1,1.7-4.2,2.5-6.3c0.6-1.6,1.2-4.3,2.5-5.4c1.2-1,2.9,1.2,3.1,2.3
				c1.4,1.4,1.6,2.6,1.6,4.6c0.1,5.2,0.9,10.2,1.6,15.4c0.5,4.4,1.3,8.7,2,13.1c0.3,1.9,0.8,3.8,1.1,5.7c0.3,1.7-0.9,4.3-3.1,2.7
				c-0.6-0.4-0.4-1-0.8-1.4c-0.4-0.4-0.9-0.5-1.3-0.9c-1.2-1.2-1.3-3.9-1.6-5.5c-0.9-4.9-2.1-9.8-2.9-14.8
				C46.8,51.3,46.9,51.3,46.8,51.2C46.7,51.3,46.8,51.2,46.8,51.2z"/>
		</g>
	</g>
	<g>
		<path fill="#FF5330" d="M68.6,66c1.3-0.3,2.6-0.5,3.8-0.8c1.6-0.4,2.9-1.4,4.4-1.9c1.8-0.5,5.4-2.9,6.4,0.1c0.2,0.8,0.1,2.5,0,3.3
			c-0.3,1.5-1.9,1.6-3.1,1.8c-2.9,0-5.5,1.3-8.2,2.1c-1.5,0.5-5.2,2-6.5,0.4c-0.6-0.7-0.3-1.8-1-2.5c0-0.6-1.1-1.6-1.2-2.5
			c-0.7-4.1-0.8-8.3-1.1-12.5c-0.1-1.7-0.4-3.3-0.6-4.9c-0.1-1.1,0-2.1-1-2.6c-1.3,0-1.8-1.6-0.8-2.4c0.9-0.6,1.1-1.9,2-2.3
			c0.8-0.4,2.3-0.3,3.2-0.6c3.2-1,6.1-2.2,9.1-3.7c0.4-0.2,6.3-2.1,5.2,0c-0.4,1.1,0.9,2.1-0.1,3.2c-0.8,0.9-2.3,1.3-3.4,1.6
			c-2.7,0.8-5.3,1.7-7.8,2.9c-1.8,0.8-1.9,0.8-1.6,2.9c0.2,1.4,0.4,2.9,0.6,4.3c1.9-0.8,3.8-1.5,5.7-2.2c1.4-0.5,3.3-1.5,4.9-1.4
			c3.5,0.2,1.2,4.1-0.2,5.4c-2.1,1.8-5.9,3.1-8.6,3.7c-1.6,0.4-1.2,1-1,2.6C67.7,61.8,67.6,64.5,68.6,66
			C69.5,65.7,68.4,65.7,68.6,66z"/>
	</g>
	<g>
		<path fill="#597533" d="M96.6,58.7c-0.5,0.1-1.1,0.3-1.6,0.5c-1,0.4-0.6,2-0.6,3c0,2.3,0.6,4.6,1,6.9c0.3,1.9-0.1,4.3-2.7,3.5
			c-2.1-0.7-1.6-2.9-2.2-4.5c-1.4-4.5-1.5-9.4-1.8-14.1c-0.1-2.6,0-5.3,0.2-7.9c0.2-2.2,0-5.2,0.7-7.3c-1.2,0.7-1.9,2.2-3.4,0.7
			c-1.2-0.6,0.1-4.3,0.8-5c1.1-1.2,3.4-1.7,4.9-2.2c2.2-0.8,4.6-1.5,6.9-1.9c4-0.7,8.7-0.9,11.1,3.1c2.5,4.2,0.2,9.1-2.3,12.7
			c-1.3,1.6-2.6,3.2-4,4.7c-0.6,0.7-3.3,2.6-3.3,3.7c0,1.1,2.9,3.7,3.6,4.6c1.6,1.9,3.2,3.8,4.7,5.7c1.1,1.4,3.7,3.7,2.9,5.6
			c-1.3,3.1-4.5,0.2-5.9-1C102.2,66.2,99.4,62.5,96.6,58.7C96.3,58.8,97.1,59.4,96.6,58.7z M94.5,52.1c2.6-1.3,4.4-4.9,5.6-7.4
			c1.2-2.7,3.5-6,0.1-7.9c-1.3-0.7-2.7-0.9-4.1-0.5c-2.1,0.6-1.4,2.4-1.4,4.2C94.8,44.4,94.5,48.2,94.5,52.1
			C94.7,52,94.5,51.3,94.5,52.1z"/>
	</g>
	<g>
		<g>
			<g>
				<path fill="#F3BD69" d="M125.5,58.7c-0.5,0.1-1.1,0.3-1.6,0.5c-1,0.4-0.6,2-0.6,3c0,2.3,0.6,4.6,1,6.9c0.3,1.9-0.1,4.3-2.7,3.5
					c-2.1-0.7-1.6-2.9-2.2-4.5c-1.4-4.5-1.5-9.4-1.8-14.1c-0.1-2.6,0-5.3,0.2-7.9c0.2-2.2,0-5.2,0.7-7.3c-1.2,0.7-1.9,2.2-3.4,0.7
					c-0.7-1.1,0.2-4.3,1-5.1c1.1-1.2,3.4-1.7,4.9-2.2c2.2-0.8,4.6-1.5,6.9-1.9c4-0.7,8.7-0.9,11.1,3.1c2.5,4.2,0.2,9.1-2.3,12.7
					c-1.3,1.6-2.6,3.2-4,4.7c-0.6,0.7-3.3,2.6-3.3,3.7c0,1.1,2.9,3.7,3.6,4.6c1.6,1.9,3.2,3.8,4.7,5.7c1.1,1.4,3.7,3.7,2.9,5.6
					c-1.3,3.1-4.5,0.2-5.9-1C131.4,66.2,128.3,62.4,125.5,58.7C125.2,58.8,126.1,59.4,125.5,58.7z M123.5,52.1
					c2.6-1.3,4.4-4.9,5.6-7.4c1.2-2.7,3.5-6,0.1-7.9c-1.3-0.7-2.7-0.9-4.1-0.5c-2.1,0.6-1.4,2.4-1.4,4.2
					C123.8,44.4,123.5,48.2,123.5,52.1C123.7,52,123.5,51.3,123.5,52.1z"/>
			</g>
		</g>
	</g>
	<g>
		<g>
			<path fill="#FF5330" d="M157.7,47.9c1.5-2.9,2.8-5.9,4.3-8.7c0.4-1.1,1.6-1.8,2.1-2.9c0.5-1.2,1.2-2.9,2.1-3.9
				c0.8-0.9,2-0.7,2.9,0c1.1,0.9,0.3,1.6,0.3,2.7c0.2,1.2-0.8,2.3-1.2,3.4c-0.7,1.6-1.2,3.3-2,4.9c-3,6.4-5.8,12.8-7.9,19.6
				c-0.9,3.1-1.6,7.2-3.5,9.9c-0.6,0.8-1.7,0.9-2.3,1.9c-0.2,1-1,2.6-2,3c-1.1,0.7-2.6-0.4-2.7-1.6c-0.1-1.5,0.7-3.4,1.1-4.8
				c1.1-3.4,2.4-6.8,3.6-10.1c0.6-1.6,1.1-3.1,1.7-4.7c0.8-2.2,0.8-2.3-0.5-4.3c-2-3-4.1-5.9-6.1-8.9c-1.6-2.3-2.7-4.9-4.2-7.3
				c-0.7-1.1-1.1-2.1-0.2-3.3c0.8-1.1,2.4-2.6,3.5-0.9c2.3,2.3,4.2,5.3,6,8.1c1,1.4,2,2.9,2.9,4.4C156.2,45.2,157.7,47.3,157.7,47.9
				C158,47.4,157.7,47.9,157.7,47.9z"/>
		</g>
	</g>
</g>
<g>
	<path fill="#F3BD69" d="M61.7,149.2c-1.8,0.7-4.2,1.6-6.1,1.6c-3.1,0-0.6-3.5,0.5-4.3c2.2-1.6,4.7-2.7,7.2-3.6
		c1.9-0.7,4.3-1.8,6.4-1.5c5.8,0.9,3.7,8.6,1.9,11.9c-1.4,2.6-3,5.1-4.7,7.6c-1.4,2-3.4,4.3-4.2,6.7c4.2-1.6,8.7-2.5,13.2-2.6
		c1.5,0,4.2-0.2,4.9,1.5c0.9,2.2,0.5,4.2-2.2,4.1c-6.2-0.3-12.6,1.3-18.8,2.3c-2.1,0.3-4.5,0.9-6.6,0.1c-4-1.4,3.1-9,4.3-10.4
		c2.6-3.7,5.9-6.9,8.6-10.5c0.5-0.6,3-3.5,1.5-4.1C65.8,147.3,63.3,148.5,61.7,149.2C61.3,149.4,64.1,148.2,61.7,149.2z"/>
</g>
<g>
	<path fill="#FF5330" d="M105.7,157.6c0,6.4-3.3,15.2-10,17.4c-8.1,3.6-11.8-6.4-11.9-12.8c-0.1-4.2,1.9-7.2,3.4-10.9
		c1.4-3,4.2-5.8,7.7-5.9c3.7-0.2,6.3,1.8,8.3,4.6C104.3,151.3,107.3,156,105.7,157.6z M100.4,157.1c0.7-4-3.8-7.6-7.6-5.8
		c-3.7,1.8-4.6,8.4-4.3,11.9c0.2,2.3,0.8,4.4,1.9,6.5c0.8,1.5,3.5,2.3,4.8,1C98.7,166.8,100.3,162.2,100.4,157.1
		C100.5,156.6,100.3,159.6,100.4,157.1z"/>
</g>
<g>
	<g>
		<path fill="#2DA48E" d="M115.3,162c0,1.5,0,3,0,4.4c0,2.1,0.3,4.6-0.2,6.6c-0.3,1.1-0.3,2.2-1.5,2.8c-1.3,0.4-2.3-0.7-2.4-1.9
			c-0.3-2.6-0.6-5.1-0.8-7.7c-0.3-3.8-0.6-7.5-0.9-11.3c-0.1-1.9-0.2-3.9-0.2-5.8c0-1.1-0.4-3.4,0.2-4.4c0.8-1.4,2.9,0.9,3.6,1.5
			c1.1,1,1.3,3.4,1.5,4.7C115,154.7,115.3,158.2,115.3,162z"/>
	</g>
</g>
<g>
	<path fill="#597533" d="M128.5,169.9c0.4-4.1,2.5-8.2,3.4-12.2c0.4-1.7,0.9-3.4,1.5-5.1c0.7-2.2,0.9-3.4-1.3-4.5
		c-2.4-1.2-5.7-1.1-8.3-1.8c-1.5-0.4-1.5-0.7-2.2-2.1c-0.3-0.8-1.4-3-0.3-3.7c0.9-0.6,3.9,0.6,4.8,0.8c3.2,0.9,7.3,2,9.7,4.5
		c2.7,2.8,2.7,5.7,1.7,9.3c-0.8,3.2-2.4,6.1-3.3,9.3c-0.4,1.3-1.1,2.5-1.5,3.9c-0.3,1.2-0.5,2.3-1.1,3.4c-0.3,0.7-0.7,2.6-1.4,3
		c-0.8,0.4-1.7,2.1-2.6,0.9C126.9,174.9,128.1,170.6,128.5,169.9C128.5,169.3,128.2,170.6,128.5,169.9z"/>
</g>
<g>
	<path fill="#385052" d="M195.9,108.1c-0.2-0.2-0.5-0.3-0.9-0.3c-0.3,0-0.7,0.1-1.1,0.3c-1.8,1.3-3.9,3.1-6.2,5.7
		c-0.2,0.2-0.4,0.4-0.7,0.7l-0.4,0.4l-0.4,0.4c-0.7,0.7-1.2,1.3-1.7,1.8c-1.4,1.4-2.5,2.5-3.3,3.1c-0.3,0.2-0.6,0.3-1,0.4
		c-0.3,0.1-0.7,0.2-1.1,0.3c-0.8,0.1-1-0.2-0.6-1c0.9-1.7,1.1-3.5,0.8-5.3c-0.3-1.7-1.2-3.2-2.6-4.4c-1.5-1.4-2.2-2.3-2.1-2.9
		c0.1-0.5,1-1.2,2.9-2.1l0.1-0.1l0.1,0c0.9-0.3,1.1-0.9,0.7-1.8c-0.7-1.7-1.9-2-3.7-0.9c-1.8,1-3.3,2.1-4.6,3.3l-0.1,0.2l-0.1,0.2
		c-0.1,0.5,0,1,0.2,1.5c-0.6,0.3-1.3,0.9-2,1.9c-0.2,0.2-0.4,0.5-0.7,0.9l-0.4,0.5l-0.4,0.5c-0.6,0.8-1.2,1.5-1.7,2
		c-0.3,0.3-0.6,0.6-0.9,1l-0.9,1.1c-0.7,0.9-1.3,1.5-1.9,2c-1,0.8-1.8,1.1-2.7,0.9c-0.8-0.2-1.5-0.9-1.9-2.1c-0.4-0.9-0.4-2-0.2-3.2
		c0.2-0.9,0.5-2.1,0.8-3.5l0.5-1.7l0.5-1.7c0.2-0.9,0.2-1.7-0.2-2.5c-0.4-0.7-0.9-1-1.4-0.8c-0.8,0.3-1.5,0.2-2-0.2
		c-0.2-0.1-0.4-0.4-0.6-0.7l-0.3-0.4l-0.3-0.4l-0.5-0.5l-0.5-0.5c-0.4-0.4-0.7-0.8-1-1c-0.8-0.7-1.7-1-2.6-0.9l-0.3,0.1
		c-1.6,0.1-3.3,1.3-5,3.8c-0.6,0.8-1.1,1.7-1.7,2.7c-0.1,0.2-0.2,0.4-0.3,0.5c-0.1,0.1-0.1,0.3-0.2,0.5c-0.2,0.3-0.3,0.5-0.3,0.5
		l0,0l-0.1,0.3l-0.1,0.2c-0.1,0.1-0.1,0.2-0.1,0.4c0,0,0,0-0.1,0c-0.4,0.8-0.8,2.7-0.5,4.1c0.2,1.4,0.8,2.9,1.8,4.4
		c1,1.4,2.3,2.3,3.8,2.5c-1.1,1.5-2.4,3-4.2,4.5c-1.5,1.2-2.8,1-3.9-0.7c-0.7-0.9-1-1.9-1.1-3c-0.1-1.2-0.1-2.7,0.2-4.5
		c0.3-2-0.4-3.9-2.1-5.8c-0.9-1.1-2-1.3-3.2-0.8c-2.5,1-4.7,1.9-6.5,2.8l-0.2,0.1l-0.2,0.1c-0.1,0.1-0.2,0.1-0.3,0.1
		c-0.2,0-0.4-0.1-0.6-0.5c-0.8-1.3-1.6-2-2.3-2.1c-0.4,0-1.4,0.3-2.8,0.9l-0.9,0.4l-0.9,0.4c-0.7,0.4-1.2,0.7-1.7,1.1
		c-0.4,0.3-0.8,0.5-0.9,0.5c-0.2-0.1-0.4-0.3-0.6-0.8c-0.5-1.1-1-1.8-1.5-1.9c-0.1,0-0.3,0-0.4,0c-0.4-0.1-0.8,0.2-1.5,0.8
		c-0.3,0.3-0.6,0.7-1.1,1.1l-0.5,0.6l-0.2,0.3l-0.2,0.3c-0.1,0.1-0.3,0.3-0.5,0.6l-0.2,0.2l-0.2,0.2c-0.1,0.2-0.3,0.3-0.4,0.5
		c-0.7,0.9-1.3,1.6-2,2.3c-1.9,2-3.8,3.4-5.8,4.1c-1.2,0.4-2.1-0.1-2.8-1.8c-0.7-1.5-0.8-3-0.5-4.5c1.5-6.3,2.9-11.6,4.2-16
		c2.2-7.1,2.5-8.4,4.7-14.9c0.2-0.7,0.2-1.6,0.1-2.7c0-0.2-0.2-0.5-0.4-0.8c-0.3-0.3-0.5-0.4-0.6-0.4c-0.2,0-0.5,0.2-0.8,0.4
		c-0.2,0.2-0.5,0.4-0.7,0.6c-0.1,0.1-0.2,0.4-0.3,0.7l-0.1,0.4l-0.1,0.4l-0.5,1.6l-0.5,1.6c-0.4,1.3-0.8,2.4-1.2,3.2
		c-1.3,3-0.8,1.7-2.3,6.8c-1.4,4.4-2.5,8.6-3.5,12.5c-0.4,1.5-0.7,2.3-1,2.5c-0.3,0.1-3-1.6-3-1.6c0.2,0,1-0.1,1.2-0.2l0.6-0.2
		l-0.2-0.3l-0.2-0.3c-0.1-0.3-0.2-0.4-0.4-0.5c-1.3-1-3-1.3-5-0.7c-1.8,0.7-3.4,1.9-4.7,3.5c-0.1,0-0.2,0-0.3,0
		c-0.7,0.1-2,1.2-4,3.4c-0.3,0.3-0.7,0.7-1.2,1.3l-0.6,0.6l-0.6,0.6c-0.8,0.9-1.4,1.5-1.8,1.8c-1.1,0.9-2.1,1.4-2.7,1.4
		c-0.8,0-1.5-0.6-2.2-1.7c-0.6-1-1-2.4-1.3-4.3c-0.1-0.7-0.2-1.5-0.2-2.4c0-0.3,0-0.7-0.1-1.1l0-0.5l0-0.5c-0.1-1.7-0.4-3.5-0.9-5.2
		c-0.1-0.3-0.3-0.5-0.8-0.7c-0.4-0.2-0.8-0.3-1.2-0.4c-0.2,0-0.4,0-0.6,0.1c-0.1,0-0.2,0.1-0.3,0.2c-0.1,0.1-0.2,0.1-0.2,0.2
		c-0.4,0.6-0.6,1.7-0.5,3.3c0.1,1.3,0.9,7.1,1.4,6.4c0.1,0.3,0.1,0.6,0.2,1l0.2,1l0.2,1.1c0.2,0.7,0.3,1.4,0.5,1.9
		c-1.2,1.3-2.7,2.7-4.6,4.2c-1.7,1.4-3,1-3.7-1.3c-1-3.3-1.1-6.7-0.2-10.3c0.3-1,0.2-2,0-3c-0.1-0.3-0.3-0.6-0.6-0.8
		c-0.3-0.3-0.7-0.5-1-0.5c-0.2,0-0.5,0-0.8,0.3c-0.3,0.2-0.5,0.4-0.8,0.7c-0.2,0.2-0.3,0.4-0.5,0.7l-0.2,0.4
		c-0.1,0.2-0.1,0.3-0.2,0.4c-0.8,1.2-1.8,1.7-3,1.5c-0.6-0.1-1-0.4-1.2-0.9c-0.1-0.2-0.2-0.4-0.2-0.7l-0.1-0.4l0-0.4
		c-0.4-3.1-1.6-5.2-3.6-6.4c-1.1-0.7-2.1-0.8-3-0.2c-0.9,0.5-1.4,1.4-1.6,2.8c-0.3,2.2,0.6,4.4,2.7,6.5c0.3,0.3,0.5,0.7,0.6,1
		l-0.1,0c-0.5,0.2-0.9,0.4-1.3,0.6c-0.9,0.5-2.1,1.4-3.6,2.5c-1,0.8-2.3,1.8-3.7,3.1c-0.4,0.3-0.6,0.4-0.7,0.4
		c-0.3,0-0.5-0.5-0.6-1.3c-0.1-0.4-0.1-1.1-0.2-2c0-0.3-0.1-0.7-0.1-1.3l-0.1-1.3c-0.2-2.2-0.4-3.4-0.4-3.8l-0.2-1.4l-0.3-1.4
		c-0.2-1-0.5-2-0.7-2.8c-0.1-0.4-0.4-0.8-0.8-1.1c-0.4-0.4-0.8-0.6-1.2-0.6l-0.1,0c-0.3,0-0.6,0.2-1,0.6c-0.1,0.1-0.3,0.3-0.4,0.5
		l-0.4,0.5c-0.3,0.4-0.6,0.8-0.9,1.4l-0.9,1.4c-0.2,0.4-0.3,0.5-0.3,0.5c0,0-0.2-0.1-0.6-0.5c-1.2-1.3-2.6-2-4.2-2
		c-0.6,0-1.1,0.1-1.8,0.3c-2.1,0.6-3.9,2.3-5.2,4.9c-0.7,1.4-0.8,2.7-0.3,3.9c0.5,1.2,1.4,2.1,2.9,2.7c0.6,0.2,1.3,0.4,1.9,0.4
		c0.5,0,1.1-0.1,1.6-0.3c0.7-0.3,1.7-0.9,2.9-1.7l0.5-0.3l0,0.1c0,0.3,0,0.4,0,0.5c-0.2,1.1-0.7,2.1-1.6,2.9c-0.9,0.9-2,1.4-3.3,1.7
		c-0.2,0.1-0.5,0.1-0.8,0.1c-0.7,0-1.4-0.2-2.2-0.6c-1-0.6-1.9-1.4-2.6-2.5c-2.1-3.2-2.8-6.8-2.2-10.9c0.8-5.8,2.7-10.6,5.5-14.3
		c1.6-2,3.3-3.1,5.2-3.1c0,0,0,0,0,0c1.4,0,2.6,0.4,3.7,1.1c1.1,0.7,2,1.8,2.5,3.2c0.3,0.9,0.8,1.9,1.3,2.8c0,0,0,0.1,0.1,0.1l0,0.1
		l0.1,0.2c0.1,0.2,0.3,0.4,0.4,0.6l0.1,0.1l0.1,0.1l0.1,0c0.4,0.4,0.8,0.6,1.2,0.6c0.2,0,0.3,0,0.5-0.1c0.2-0.1,0.6-0.4,0.7-1
		c0.1-0.5,0-1.1-0.3-1.7l-0.1-0.1c-0.5-1.3-1-2.4-1.6-3.4c-2-3.7-5-5.5-9-5.6c-2.2,0-4.2,0.8-5.8,2.4l0,0c-1,0.9-2.1,2.2-3.3,3.9
		c-1.4,2.1-2.5,4.3-3.3,6.5c-1.5,4.5-2.1,8.6-1.8,12.2l0,0.4c0.1,0.6,0.1,1.2,0.3,1.8l0.1,0.2l0.2,0.7c0.1,0.5,0.3,0.9,0.4,1.4
		c0.2,0.4,0.4,0.9,0.7,1.5l0.7,1.5c1.7,3.5,4.2,5.3,7.6,5.4l0.3,0c0.6,0,1.2-0.1,1.9-0.2l1.1-0.2l1-0.3c1.4-0.4,2.6-1.2,3.7-2.6
		c1-1.3,1.5-2.7,1.6-4.2c0-2.7,0.9-5.3,2.4-7.6c0.1-0.1,0.2-0.3,0.4-0.4c0,0,0.1-0.1,0.1-0.1c0,0,0,0,0,0.1l0.1,0.2l0,0.3
		c0,0.6,0.2,2.4,0.6,5.5c0.3,2.8,0.6,5,0.8,6.5c0.1,0.7,0,1.2-0.4,1.7c-0.1,0.1-0.3,0.4-0.8,1c-0.2,0.3-0.4,0.5-0.6,0.8
		c-0.2,0.3-0.5,0.6-0.7,0.9c-1.3,1.6-2.5,3.2-3.5,4.8c-3.3,4.8-5.5,9.1-6.6,12.9c0,0.1-0.1,0.2-0.1,0.5c0,0.2-0.1,0.5-0.1,0.8
		c0,0.8,0,1.6,0.1,2.3c0.3,2.3,1.2,4.1,2.8,5.3l0.4,0.3l0.4,0.2c0.9,0.5,1.9,0.8,3.1,1c0.5,0.1,1,0.1,1.4,0.1c2,0,3.6-0.7,4.7-2.2
		c2.7-3.4,4-6.6,4.1-9.4c0.1-4.8-0.1-10.4-0.4-16.6c0-0.5,0.1-1,0.2-1.3c0.1-0.3,0.4-0.6,0.8-1l0.8-0.8l0.9-0.8
		c0.7-0.6,1.2-1.2,1.7-1.6c1.3-1.2,2.4-2.1,3.3-2.7c0.1-0.1,0.4-0.2,0.7-0.4l0.9-0.5c1.1-0.6,1.3-0.9,1.4-1l0.2-0.2
		c0.2,0.1,0.3,0.2,0.5,0.3c1.8,1,3.5,1.2,5.3,0.7l0.2,0l0,0l0.3-0.1l0.3-0.1c0.5-0.2,0.9-0.2,1.1,0c0.2,0.2,0.3,0.6,0.3,1.2l0,2
		c0,0.7,0.1,1.4,0.1,2c0.1,1.5,0.5,2.8,1,3.9c1,2.3,2.3,3.5,4.1,3.8c1.6,0.3,3.3-0.4,5.1-2c1-0.9,2.2-2.2,3.5-3.8
		c0.9,1.2,2,2,3.3,2.1c1.7,0.2,3.6-0.6,5.7-2.5c0.5-0.4,1.1-1.1,1.8-1.9c0.3-0.3,0.6-0.7,1-1.2l1-1.2c0.1-0.1,0.2-0.3,0.3-0.4
		c0,0.8,0,1.4,0.1,1.9c0.2,1.1,0.6,2,1.3,2.7c0.7,0.8,1.8,1.4,3.1,1.8c0.4,0.1,1,0.2,1.7,0.4l0.8,0.2l0.8,0.2c0.3,0.1,0.6,0,1-0.2
		c0.2-0.1,0.3-0.2,0.5-0.3c0.1-0.1,0.3-0.2,0.5-0.3c0.4-0.3,0.8-0.7,1.4-1.2l0.6-0.6l0.7-0.6c0.7-0.6,1.3-0.5,1.6,0.3
		c0.2,0.4,0.5,1.1,1.1,2.1c0.6,1.2,1.6,2,3,2.3c1.3,0.3,2.6,0.2,3.9-0.5c1.4-0.7,3.2-2.2,5.4-4.6c0.4-0.4,0.8-0.9,1.2-1.4
		c0.3-0.3,0.7-0.8,1.1-1.3c0.9-1,1.4-1.6,1.6-1.8c0.2-0.2,0.4-0.4,0.5-0.6c0.1,0.5,0.2,1,0.2,1.5c0.2,1.2,0.2,2.3,0.2,3.1
		c0,0.2,0,0.6-0.1,1l-0.1,0.5l-0.1,0.5l0,0.3v0.3c0,0.3,0.1,0.5,0.2,0.6c0.2,0.3,0.4,0.5,0.6,0.7c0.2,0.2,0.5,0.3,0.7,0.4
		c0.2,0,0.4-0.1,0.7-0.2c0.3-0.2,0.5-0.3,0.6-0.5c0.4-0.8,0.8-1.8,1.3-3c0.5-1.5,1.1-2.7,1.7-3.5c0.8-1,1.9-1.7,3.3-2.1
		c0.7-0.2,1.2-0.2,1.4-0.1c0.2,0.2,0.3,0.6,0.2,1.3l-0.2,1.3l-0.2,1.3c-0.2,1.2-0.4,2-0.5,2.6c-0.2,1.2-0.2,2.1,0,2.7
		c0.1,0.3,0.3,0.5,0.6,0.8c0.2,0.2,0.6,0.4,0.9,0.6c0.1,0,0.2-0.1,0.5-0.3c0.3-0.3,0.4-0.5,0.5-0.7c0.7-1.8,1.2-3.3,1.4-4.3
		c0.6-2.7,2-4.6,4.2-5.7c1.5-0.8,2.8-1,4-0.6c0.3,0.1,0.5,0.5,0.7,1.3c0.1,0.3,0.2,0.7,0.2,1.1c0,0.3,0.1,0.7,0.1,1
		c0,0.4,0,0.8,0,1.3l-0.1,1.3c-0.1,1.2,0,2.1,0,2.7c0.3,2.7,1.3,4.6,2.9,5.7c1.2,0.8,2.5,1.1,3.9,0.9c1.4-0.1,2.6-0.7,3.6-1.7
		c0.5-0.5,1-1.1,1.6-1.8l0.7-0.9l0.7-0.9v0c0.3-0.4,0.7-1.1,1.2-2c0.2-0.3,0.4-0.7,0.7-1.3l0.1-0.2c0,0,0.1,0,0.1,0
		c1.4-0.4,2.4-0.5,3.1-0.3c0.9,0.2,1.7,0.9,2.2,2.1c0.1,0.2,0.3,0.4,0.6,0.7l0.4,0.3l0.4,0.3c1.5,1.4,3.4,1.5,5.5,0.5
		c0.9-0.5,1.9-1.1,2.7-2.1c0.3-0.3,0.7-0.8,1.1-1.3l0.5-0.7l0.5-0.6c0.9-1.1,2.5-3.2,4.9-6.3c0.2-0.2,0.3-0.5,0.4-0.7
		c1.3,1.2,2.6,2.3,3.8,3.6c0.9,0.9,1.3,1.9,1.2,2.9c-0.1,1-0.7,1.9-1.7,2.7c-0.8,0.6-1.4,0.5-1.9-0.3l-0.4-0.7l-0.4-0.7
		c-0.3-0.5-0.7-1-1-1.3c-0.4-0.5-0.9-0.7-1.3-0.6c-0.4,0.1-0.7,0.5-0.9,1.2c-0.4,1.2-0.4,2.3-0.2,3.3c0.3,1.1,0.9,1.9,1.8,2.3l1,0.5
		l1,0.5c0.8,0.3,1.4,0.6,2.1,0.8c1.6,0.4,3,0.5,4.4,0.1c1.5-0.4,3.3-1.5,5.3-3.3c0.7-0.6,1.5-1.4,2.4-2.3c0.3-0.3,0.6-0.6,1.1-1.1
		l0.5-0.5l0.5-0.5c1.6-1.6,3.6-3.6,6.2-6l0,0l0.1-0.1c0.1-0.1,0.1-0.1,0.2-0.2c0.2-0.2,0.3-0.4,0.4-0.6
		C196.3,109,196.2,108.5,195.9,108.1z M20.6,109.3c-0.3,0.2-0.6,0.4-1,0.6l-1.1,0.6c-0.5,0.3-0.9,0.4-1.4,0.4
		c-0.3,0-0.6-0.1-0.9-0.2c0,0-0.2-0.1-0.4-0.6c-0.1-0.4-0.2-0.7-0.2-1c0.1-0.9,0.7-1.6,1.9-2.3c0.8-0.5,1.5-0.7,2.1-0.7
		c0.3,0,0.6,0.1,0.9,0.2c0.2,0.1,0.5,0.3,0.7,0.6l0.4,0.4l0.2,0.2C21.7,108.2,21.3,108.8,20.6,109.3z M30.5,138.1
		c-0.1,2.1-1,4.6-2.8,7.3c-0.6,0.9-1.4,1.5-2.4,1.8c-0.3,0.1-0.6,0.1-0.9,0.1c-0.7,0-1.4-0.2-2.1-0.5l-0.2-0.1l-0.2-0.1
		c-1-0.7-1.5-1.9-1.6-3.7c0-0.6,0-1.3,0.2-2l0.1-0.7l0.1-0.3l0-0.2c0.6-2.2,1.4-4.1,2.5-5.8c0.9-1.4,2.1-3,3.5-4.9l3.7-4.8
		c0.1-0.1,0.1-0.1,0.2-0.2c0,0.1,0,0.2,0.1,0.3c0,0.2,0.1,1.4,0.1,5.6C30.6,133.5,30.6,136.3,30.5,138.1z M44.5,107.4
		c-0.2,0.1-0.4,0-0.6-0.4l-0.2-0.2l-0.1-0.2c-0.1-0.2-0.2-0.4-0.3-0.4c-0.4-0.5-0.6-1-0.6-1.4l-0.1-0.3l-0.1-0.3
		c0-0.3-0.1-0.4-0.1-0.6c0-0.4,0.1-0.7,0.4-0.8c0,0,0.1,0,0.1,0l0,0l0,0c0.3,0,0.6,0.1,0.8,0.5l0.1,0.3l0.1,0.3
		c0.1,0.2,0.2,0.4,0.2,0.5c0.1,0.1,0.1,0.3,0.2,0.6c0.1,0.3,0.2,0.7,0.3,1C44.9,106.8,44.8,107.3,44.5,107.4z M91.6,113.8
		c-1.7,2.4-3.6,3.9-5.8,4.3c-1,0.2-1.9-0.1-2.7-0.9c-0.8-0.8-1.1-1.8-0.8-2.8c0.2-0.8,0.9-1.6,2.2-2.5c1.3-0.9,2.5-1.4,3.5-1.4
		c0.2,0.1,0.4,0.2,0.8,0.4l0.4,0.2l0.4,0.3c0.8,0.4,1.4,0.8,1.9,1.1c0.1,0.1,0.2,0.3,0.2,0.6C91.7,113.4,91.7,113.7,91.6,113.8z
		 M154.1,107.2l-0.5,1.7c-0.4,1.3-0.8,2.4-1.2,3.3c-0.7,1.6-2.2,2.6-4.5,2.8c-1.5,0.2-2.5-0.4-3.2-1.7l-0.2-0.4l-0.2-0.3
		c-0.2-0.3-0.3-0.5-0.3-0.7c-0.2-0.5-0.4-1.1-0.4-1.8c-0.2-1.4,0-2.7,0.6-4.1c0.4-1,1.2-2.1,2.3-3.3c0.7-0.8,1.5-1.1,2.6-1
		c1,0.1,1.9,0.6,2.6,1.5l0.2,0.3l0.2,0.3c0.2,0.2,0.3,0.4,0.5,0.5c0.4,0.3,0.9,0.4,1.4,0.3c0.1,0,0.2,0.1,0.3,0.3
		c0.2,0.2,0.2,0.4,0.2,0.5L154.1,107.2z"/>
	<path fill="#385052" d="M62.7,99.2c0.6,0,1.2-0.3,2-1.1c0.7-0.7,1.1-1.4,1.1-2c0-0.5-0.4-1.1-1.1-1.7c-0.7-0.6-1.4-0.9-1.9-0.9
		c-1.8,0.1-2.7,1-2.6,2.7c0,0.7,0.3,1.4,0.8,2C61.5,98.9,62.1,99.2,62.7,99.2z"/>
</g>
</svg>
